<svg width="274" height="60" fill="none" xmlns="http://www.w3.org/2000/svg">
  <g filter="url(#a)" fill="#fff">
    <path d="M54.755 21.272a10.778 10.778 0 0 1-1.09 4.83 12.265 12.265 0 0 1-2.851 3.795 12.518 12.518 0 0 1-4.15 2.508 14.196 14.196 0 0 1-9.828 0 12.861 12.861 0 0 1-4.192-2.508 12.055 12.055 0 0 1-2.867-3.794 10.779 10.779 0 0 1-1.074-4.831c-.026-1.731.34-3.446 1.073-5.015a11.362 11.362 0 0 1 2.927-3.82 12.847 12.847 0 0 1 4.192-2.407 14.448 14.448 0 0 1 9.827 0 12.504 12.504 0 0 1 4.15 2.424 11.603 11.603 0 0 1 2.903 3.988 11.568 11.568 0 0 1 .98 4.83Zm-12.997 5.725a6.187 6.187 0 0 0 2.18-.376 5.033 5.033 0 0 0 2.935-2.9 6.76 6.76 0 0 0 .42-2.45 6.883 6.883 0 0 0-.42-2.465 4.754 4.754 0 0 0-1.174-1.797 5.14 5.14 0 0 0-1.76-1.087 6.51 6.51 0 0 0-4.36 0 5.14 5.14 0 0 0-1.761 1.087 4.754 4.754 0 0 0-1.174 1.797 6.885 6.885 0 0 0-.42 2.466 6.76 6.76 0 0 0 .42 2.449 5.014 5.014 0 0 0 2.934 2.9 6.187 6.187 0 0 0 2.18.376ZM56.222 32.68v-.46c.508-.391.88-.932 1.065-1.545a8.806 8.806 0 0 0 .403-2.968V8.15a7.718 7.718 0 0 0-.403-2.842 3.068 3.068 0 0 0-1.065-1.42v-.46a8.721 8.721 0 0 0 2.264-.31c.793-.223 1.57-.502 2.323-.835a22.167 22.167 0 0 0 2.247-1.045c.73-.401 1.4-.82 2.012-1.237v27.707c-.034.977.07 1.953.31 2.9a2.96 2.96 0 0 0 1.157 1.614v.46H56.222ZM93.954 21.272a10.896 10.896 0 0 1-1.074 4.83 12.265 12.265 0 0 1-2.85 3.795 12.517 12.517 0 0 1-4.193 2.508 14.196 14.196 0 0 1-9.827 0 12.863 12.863 0 0 1-4.192-2.508 12.207 12.207 0 0 1-2.876-3.794 10.885 10.885 0 0 1-1.065-4.831c-.028-1.67.31-3.326.99-4.852a11.47 11.47 0 0 1 2.95-3.983 12.847 12.847 0 0 1 4.193-2.424 14.449 14.449 0 0 1 9.827 0 12.505 12.505 0 0 1 4.193 2.424 11.571 11.571 0 0 1 3.924 8.835Zm-12.997 5.725a6.187 6.187 0 0 0 2.18-.376 5.033 5.033 0 0 0 2.935-2.9 6.76 6.76 0 0 0 .42-2.45 6.885 6.885 0 0 0-.42-2.465 4.755 4.755 0 0 0-1.174-1.797 5.14 5.14 0 0 0-1.76-1.087 6.51 6.51 0 0 0-4.36 0 5.14 5.14 0 0 0-1.762 1.087 4.755 4.755 0 0 0-1.174 1.797 6.885 6.885 0 0 0-.419 2.466 6.76 6.76 0 0 0 .42 2.449 5.013 5.013 0 0 0 2.976 2.9c.685.25 1.409.378 2.138.376ZM95.42 32.68v-.46a3.168 3.168 0 0 0 1.09-1.562 9.166 9.166 0 0 0 .378-2.95v-13.04a8.809 8.809 0 0 0-.402-2.966 3.068 3.068 0 0 0-1.065-1.547v-.46c.36-.142.763-.275 1.19-.4a6.09 6.09 0 0 1 1.577-.185 5.822 5.822 0 0 1 3.102.836 4.567 4.567 0 0 1 1.971 2.591 7.219 7.219 0 0 1 2.264-2.507 5.307 5.307 0 0 1 3.06-.936 4.625 4.625 0 0 1 2.096.46 5.074 5.074 0 0 1 1.551 1.17c.423.488.742 1.057.939 1.671.205.578.313 1.185.319 1.797a5.452 5.452 0 0 1-.293 1.689 4.288 4.288 0 0 1-.839 1.504 4.04 4.04 0 0 1-1.467 1.07 5.3 5.3 0 0 1-2.113.393 2.302 2.302 0 0 0-.445-1.421 1.675 1.675 0 0 0-1.442-.585 2.43 2.43 0 0 0-1.911.92 4.07 4.07 0 0 0-.772 2.674v7.271c-.034.977.071 1.953.31 2.9a2.96 2.96 0 0 0 1.157 1.614v.46H95.421ZM131.895 32.597a14.5 14.5 0 0 0-3.782-2.365 18.25 18.25 0 0 0-2.842-.978 13.136 13.136 0 0 0-3.295-.393 11.275 11.275 0 0 0-3.43.393 1.577 1.577 0 0 0-1.174 1.672 1.246 1.246 0 0 0 .327.902c.332.288.729.492 1.157.594.545.167 1.267.334 2.164.51l3.404.643a15.53 15.53 0 0 1 4.435 1.53 8.678 8.678 0 0 1 2.709 2.231c1.744 2.248 1.937 4.63 1.794 7.364a12.601 12.601 0 0 1-3.002 7.522 11.4 11.4 0 0 1-8.661 3.653 14.742 14.742 0 0 1-5.358-.878 11.898 11.898 0 0 1-3.74-2.232 8.763 8.763 0 0 1-2.884-6.377 6.333 6.333 0 0 1 .394-2.407 4.61 4.61 0 0 1 .922-1.438 3.36 3.36 0 0 1 1.325-.953 7.255 7.255 0 0 0 1.149 2.4 8.76 8.76 0 0 0 2.063 2.064 9.242 9.242 0 0 0 6.037 1.88c1.769-.142 4.93-1.512 4.695-3.752-.101-1.037-1.182-1.672-2.155-2.057-3.127-1.228-6.758-1.27-9.676-2.967a8.372 8.372 0 0 1-2.515-2.206 8.114 8.114 0 0 1-1.342-2.792 12.77 12.77 0 0 1-.394-3.168 7.979 7.979 0 0 1 .839-3.468 9.187 9.187 0 0 1 2.305-2.968 11.196 11.196 0 0 1 3.665-2.064 16.484 16.484 0 0 1 7.546-.56c.676.112 1.345.263 2.004.451l1.526.452c.379.121.775.186 1.174.192.499.033.998-.062 1.45-.276.149-.106.292-.22.428-.343l1.266 9.83-.528.359ZM156.169 31.552a14.004 14.004 0 0 0-3.396-1.964 11.672 11.672 0 0 0-4.444-.794 7.576 7.576 0 0 0-2.516.401 6.139 6.139 0 0 0-2.012 1.12 5.405 5.405 0 0 0-1.358 1.806 6.172 6.172 0 0 0 0 4.88 5.553 5.553 0 0 0 1.358 1.823c.59.51 1.273.902 2.012 1.153.812.268 1.661.401 2.516.393a7.129 7.129 0 0 0 2.322-.35 5.272 5.272 0 0 0 1.745-.987 4.134 4.134 0 0 0 1.408-3.093c.452.004.899.094 1.317.268.441.192.836.477 1.157.836a4.363 4.363 0 0 1 1.132 2.967 5.695 5.695 0 0 1-.587 2.507 6.15 6.15 0 0 1-1.803 2.157 9.327 9.327 0 0 1-3.102 1.496 15.304 15.304 0 0 1-4.444.568 14.397 14.397 0 0 1-4.905-.836 12.793 12.793 0 0 1-4.193-2.398 11.405 11.405 0 0 1-2.958-3.985 11.37 11.37 0 0 1-.983-4.859c-.034-1.792.33-3.57 1.065-5.207a11.236 11.236 0 0 1 2.876-3.82 12.36 12.36 0 0 1 4.193-2.34c1.58-.531 3.237-.8 4.905-.794a15.925 15.925 0 0 1 4.293.544l1.324.376c.326.104.665.16 1.007.167.41.008.815-.093 1.173-.293.163-.082.318-.18.462-.292l.922 8.442-.486.108ZM173.441 46.054v-.46a3.114 3.114 0 0 0 1.065-1.546c.303-.96.439-1.963.403-2.967v-7.983a3.915 3.915 0 0 0-1.048-2.908 3.559 3.559 0 0 0-2.516-1.02 3.65 3.65 0 0 0-1.325.25 3.414 3.414 0 0 0-1.148.736 3.618 3.618 0 0 0-.839 1.187 4.01 4.01 0 0 0-.31 1.672v8.107c-.034.977.07 1.953.31 2.9a2.96 2.96 0 0 0 1.157 1.614v.46h-10.296v-.46c.508-.392.88-.933 1.065-1.546.302-.96.438-1.963.402-2.968v-19.6a7.726 7.726 0 0 0-.402-2.841 3.074 3.074 0 0 0-1.065-1.421v-.46a8.987 8.987 0 0 0 2.096-.293 18.12 18.12 0 0 0 2.365-.769 23.196 23.196 0 0 0 2.347-1.111 19.712 19.712 0 0 0 2.038-1.254V19.5c0 1.883-.014 3.616-.042 5.198a9.391 9.391 0 0 1 2.557-1.613 7.661 7.661 0 0 1 3.019-.601 9.644 9.644 0 0 1 3.857.727 7.793 7.793 0 0 1 2.825 2.073 8.95 8.95 0 0 1 1.744 3.2 13.59 13.59 0 0 1 .587 4.071v8.526c-.034.976.071 1.952.311 2.9a2.955 2.955 0 0 0 1.157 1.613v.46h-10.314ZM206.393 36.943c.397.296.725.672.965 1.104.327.61.487 1.297.461 1.989a4.82 4.82 0 0 1-.629 2.298 6.698 6.698 0 0 1-1.912 2.132 10.552 10.552 0 0 1-3.203 1.571 15.857 15.857 0 0 1-4.611.602 12.873 12.873 0 0 1-4.989-.936 12.316 12.316 0 0 1-3.941-2.591 11.51 11.51 0 0 1-2.599-3.887 12.501 12.501 0 0 1-.923-4.831 11.336 11.336 0 0 1 3.732-8.584 12.06 12.06 0 0 1 3.94-2.407 13.144 13.144 0 0 1 4.738-.836 14.02 14.02 0 0 1 4.486.669 10.075 10.075 0 0 1 3.354 1.822 7.515 7.515 0 0 1 2.75 5.784 5.29 5.29 0 0 1-.629 2.507 6.168 6.168 0 0 1-1.803 2.031 9.441 9.441 0 0 1-2.901 1.396 13.374 13.374 0 0 1-3.79.502 13.745 13.745 0 0 1-3.731-.443 12.578 12.578 0 0 1-2.557-.937 5.49 5.49 0 0 0 2.196 3.285 7.338 7.338 0 0 0 4.428 1.27c.864.014 1.725-.1 2.557-.334a9.636 9.636 0 0 0 2.012-.835 7.323 7.323 0 0 0 1.509-1.112c.392-.383.757-.794 1.09-1.229Zm-13.541-4.847c.581.348 1.2.628 1.845.835.829.25 1.691.368 2.557.351a4.444 4.444 0 0 0 2.557-.668 2.056 2.056 0 0 0 .965-1.755 2.098 2.098 0 0 0-.797-1.672 3.461 3.461 0 0 0-2.264-.669 4.783 4.783 0 0 0-2.96 1.003 5.578 5.578 0 0 0-1.903 2.575ZM239.43 46.054v-.46a3.118 3.118 0 0 0 1.064-1.546c.303-.96.439-1.963.403-2.967v-7.857a3.898 3.898 0 0 0-1.048-2.909 3.548 3.548 0 0 0-2.558-1.02 3.477 3.477 0 0 0-2.515 1.07 4.027 4.027 0 0 0-1.09 3.068V41.064c-.034.976.071 1.953.31 2.9a2.96 2.96 0 0 0 1.157 1.613v.46H224.84v-.46a3.114 3.114 0 0 0 1.065-1.546 8.8 8.8 0 0 0 .402-2.967v-7.965a3.897 3.897 0 0 0-1.048-2.91 3.538 3.538 0 0 0-2.515-1.019 3.48 3.48 0 0 0-2.516 1.07 4.018 4.018 0 0 0-1.09 3.026v7.815c-.033.976.071 1.952.311 2.9a2.955 2.955 0 0 0 1.157 1.613v.46h-10.314v-.46a3.166 3.166 0 0 0 1.091-1.563 9.174 9.174 0 0 0 .377-2.95V28.04a8.802 8.802 0 0 0-.403-2.966 3.114 3.114 0 0 0-1.065-1.547v-.46c.336-.108.772-.233 1.317-.376a6.88 6.88 0 0 1 1.744-.208 5.244 5.244 0 0 1 2.951.835 5.461 5.461 0 0 1 1.954 2.316 9.598 9.598 0 0 1 2.809-2.257 7.488 7.488 0 0 1 3.647-.894 9.183 9.183 0 0 1 4.545 1.07 7.684 7.684 0 0 1 3.002 2.983 9.68 9.68 0 0 1 3.018-2.841 7.567 7.567 0 0 1 4.025-1.087 9.5 9.5 0 0 1 3.857.735 7.751 7.751 0 0 1 2.825 2.065 8.968 8.968 0 0 1 1.745 3.201c.4 1.32.598 2.692.586 4.07v8.401c-.033.976.071 1.952.311 2.9a2.955 2.955 0 0 0 1.157 1.613v.46H239.43ZM272.382 36.943c.396.296.725.672.964 1.104.328.61.487 1.297.461 1.989a4.82 4.82 0 0 1-.629 2.298 6.695 6.695 0 0 1-1.911 2.132 10.672 10.672 0 0 1-3.245 1.571 15.86 15.86 0 0 1-4.612.602 12.873 12.873 0 0 1-4.989-.936 12.316 12.316 0 0 1-3.941-2.591 11.526 11.526 0 0 1-2.599-3.887 12.5 12.5 0 0 1-.922-4.831 11.304 11.304 0 0 1 .937-4.693 11.348 11.348 0 0 1 2.794-3.89 12.07 12.07 0 0 1 3.983-2.408 13.139 13.139 0 0 1 4.737-.836 14.02 14.02 0 0 1 4.486.669 10.075 10.075 0 0 1 3.354 1.822 7.589 7.589 0 0 1 2.054 2.65 7.43 7.43 0 0 1 .696 3.134 5.29 5.29 0 0 1-.629 2.507 6.168 6.168 0 0 1-1.803 2.031 9.441 9.441 0 0 1-2.901 1.396 13.37 13.37 0 0 1-3.79.502 13.75 13.75 0 0 1-3.731-.443 12.6 12.6 0 0 1-2.557-.937 5.486 5.486 0 0 0 2.18 3.243 7.317 7.317 0 0 0 4.427 1.27c.864.014 1.726-.099 2.557-.333a9.622 9.622 0 0 0 2.013-.836 7.35 7.35 0 0 0 1.509-1.112c.396-.37.766-.766 1.107-1.187Zm-13.542-4.847c.581.348 1.2.628 1.845.835.829.25 1.692.368 2.557.351a4.449 4.449 0 0 0 2.558-.685 2.054 2.054 0 0 0 .964-1.755 2.097 2.097 0 0 0-.797-1.672 3.462 3.462 0 0 0-2.264-.669 4.78 4.78 0 0 0-2.934 1.003 5.58 5.58 0 0 0-1.929 2.591ZM25.366 19.934a15.239 15.239 0 0 0-4.192-2.733c-2.314-1.036-5.945-1.671-8.326-.576-2.935 1.404-4.461 4.78-4.461 7.865-.01 1.152.18 2.297.562 3.385 1.425 3.978 5.87 6.369 9.919 4.789a6.853 6.853 0 0 0 2.33-1.488 5.63 5.63 0 0 0 1.317-2.131c.278-.807.42-1.655.42-2.508.534 0 1.065.094 1.568.276.512.17.989.43 1.408.77.43.366.773.823 1.006 1.336.264.6.392 1.251.378 1.906a8.036 8.036 0 0 1-.755 3.343 8.414 8.414 0 0 1-2.306 2.943 11.953 11.953 0 0 1-3.957 2.173A15.526 15.526 0 0 1 6.32 37.052a15.441 15.441 0 0 1-4.686-5.541 15.39 15.39 0 0 1-1.632-7.063 14.371 14.371 0 0 1 1.359-6.352c.867-1.82 2.12-3.431 3.672-4.723a17.231 17.231 0 0 1 7.974-3.644c3.06-.535 5.76 0 8.728.677.427.1.862.156 1.3.167a4.38 4.38 0 0 0 1.283-.167c.294-.09.576-.217.838-.376l.671 9.82-.46.084Z"/>
  </g>
  <g filter="url(#b)">
    <ellipse cx="92.235" cy="50.985" rx="5.031" ry="5.015" fill="#F98DFF"/>
  </g>
  <g filter="url(#c)">
    <ellipse cx="67.08" cy="50.985" rx="5.031" ry="5.015" fill="#FCC1FF"/>
  </g>
  <g filter="url(#d)">
    <ellipse cx="41.087" cy="50.985" rx="5.031" ry="5.015" fill="#FEE4FF"/>
  </g>
  <defs>
    <filter id="a" x="0" y="0" width="274" height="59.879" filterUnits="userSpaceOnUse" color-interpolation-filters="sRGB">
      <feFlood flood-opacity="0" result="BackgroundImageFix"/>
      <feColorMatrix in="SourceAlpha" values="0 0 0 0 0 0 0 0 0 0 0 0 0 0 0 0 0 0 127 0" result="hardAlpha"/>
      <feOffset dy="4"/>
      <feComposite in2="hardAlpha" operator="out"/>
      <feColorMatrix values="0 0 0 0 0.172549 0 0 0 0 0.0745098 0 0 0 0 0.443137 0 0 0 1 0"/>
      <feBlend in2="BackgroundImageFix" result="effect1_dropShadow_31:481"/>
      <feBlend in="SourceGraphic" in2="effect1_dropShadow_31:481" result="shape"/>
    </filter>
    <filter id="b" x="87.204" y="45.97" width="10.062" height="14.03" filterUnits="userSpaceOnUse" color-interpolation-filters="sRGB">
      <feFlood flood-opacity="0" result="BackgroundImageFix"/>
      <feColorMatrix in="SourceAlpha" values="0 0 0 0 0 0 0 0 0 0 0 0 0 0 0 0 0 0 127 0" result="hardAlpha"/>
      <feOffset dy="4"/>
      <feComposite in2="hardAlpha" operator="out"/>
      <feColorMatrix values="0 0 0 0 0.172549 0 0 0 0 0.0745098 0 0 0 0 0.443137 0 0 0 1 0"/>
      <feBlend in2="BackgroundImageFix" result="effect1_dropShadow_31:481"/>
      <feBlend in="SourceGraphic" in2="effect1_dropShadow_31:481" result="shape"/>
    </filter>
    <filter id="c" x="62.05" y="45.97" width="10.062" height="14.03" filterUnits="userSpaceOnUse" color-interpolation-filters="sRGB">
      <feFlood flood-opacity="0" result="BackgroundImageFix"/>
      <feColorMatrix in="SourceAlpha" values="0 0 0 0 0 0 0 0 0 0 0 0 0 0 0 0 0 0 127 0" result="hardAlpha"/>
      <feOffset dy="4"/>
      <feComposite in2="hardAlpha" operator="out"/>
      <feColorMatrix values="0 0 0 0 0.172549 0 0 0 0 0.0745098 0 0 0 0 0.443137 0 0 0 1 0"/>
      <feBlend in2="BackgroundImageFix" result="effect1_dropShadow_31:481"/>
      <feBlend in="SourceGraphic" in2="effect1_dropShadow_31:481" result="shape"/>
    </filter>
    <filter id="d" x="36.057" y="45.97" width="10.062" height="14.03" filterUnits="userSpaceOnUse" color-interpolation-filters="sRGB">
      <feFlood flood-opacity="0" result="BackgroundImageFix"/>
      <feColorMatrix in="SourceAlpha" values="0 0 0 0 0 0 0 0 0 0 0 0 0 0 0 0 0 0 127 0" result="hardAlpha"/>
      <feOffset dy="4"/>
      <feComposite in2="hardAlpha" operator="out"/>
      <feColorMatrix values="0 0 0 0 0.172549 0 0 0 0 0.0745098 0 0 0 0 0.443137 0 0 0 1 0"/>
      <feBlend in2="BackgroundImageFix" result="effect1_dropShadow_31:481"/>
      <feBlend in="SourceGraphic" in2="effect1_dropShadow_31:481" result="shape"/>
    </filter>
  </defs>
</svg>
