<svg width="136" height="34" viewBox="0 0 136 34" fill="none" xmlns="http://www.w3.org/2000/svg">
<g>
<path d="M17.1996 24.8093C17.1428 24.8125 17.086 24.8037 17.0329 24.7834C16.9797 24.7631 16.9314 24.7318 16.8912 24.6916C16.851 24.6513 16.8197 24.603 16.7994 24.5499C16.7791 24.4967 16.7703 24.4398 16.7735 24.383L16.6739 19.2395L16.6739 10.0267L11.5633 19.9344C11.4991 20.0681 11.3993 20.1816 11.2748 20.2622C11.1503 20.3428 11.006 20.3874 10.8577 20.3911L9.13112 20.3911C8.98434 20.3887 8.84131 20.3444 8.71879 20.2635C8.59627 20.1826 8.49934 20.0684 8.43938 19.9344L3.18211 9.76096L3.18211 19.2395L3.0825 24.3858C3.08324 24.4421 3.07274 24.498 3.05162 24.5502C3.0305 24.6024 2.99919 24.6499 2.95951 24.6898C2.91983 24.7298 2.87258 24.7614 2.82053 24.7829C2.76848 24.8044 2.71268 24.8152 2.65638 24.8149L0.664155 24.8149C0.608094 24.8152 0.552518 24.8044 0.500654 24.7832C0.448789 24.7619 0.401668 24.7305 0.362026 24.6908C0.322384 24.6512 0.291011 24.604 0.269727 24.5521C0.248443 24.5002 0.237672 24.4446 0.23804 24.3885L0.138428 19.2395L0.138428 7.40792L0.238039 2.26169C0.24147 2.14945 0.287382 2.04271 0.36649 1.96305C0.445597 1.88339 0.551993 1.83676 0.664155 1.83261L2.65638 1.83261C2.74389 1.83053 2.82982 1.85618 2.90188 1.9059C2.97394 1.95562 3.02844 2.02686 3.0576 2.10943L9.99442 17.1744L16.7929 2.11774C16.8116 2.02787 16.8645 1.94878 16.9404 1.89715C17.0163 1.84551 17.1092 1.82535 17.1996 1.84091L19.1919 1.84091C19.3022 1.84488 19.4071 1.88996 19.4859 1.96729C19.5647 2.04462 19.6119 2.14863 19.618 2.25892L19.7176 7.41069L19.7176 19.2395L19.618 24.3802C19.6187 24.4366 19.6082 24.4925 19.5871 24.5447C19.566 24.5969 19.5347 24.6443 19.495 24.6843C19.4553 24.7243 19.4081 24.7559 19.356 24.7774C19.304 24.7988 19.2482 24.8097 19.1919 24.8093L17.1996 24.8093Z" fill="white"/>
<path d="M19.1918 1.97101C19.2655 1.9783 19.3342 2.01202 19.385 2.06594C19.4359 2.11987 19.4655 2.19037 19.4685 2.26445L19.5681 7.40791L19.5681 19.2395L19.4796 24.383C19.4796 24.4564 19.4504 24.5268 19.3985 24.5787C19.3466 24.6307 19.2762 24.6598 19.2029 24.6598L17.2106 24.6598C17.1729 24.6599 17.1355 24.6522 17.1008 24.6373C17.0661 24.6223 17.0348 24.6005 17.0089 24.573C16.9829 24.5455 16.9629 24.513 16.95 24.4774C16.9371 24.4419 16.9317 24.4041 16.9339 24.3664L16.8122 19.2395L16.8122 9.45644L16.2892 10.4696L11.4387 19.8818C11.3862 19.9924 11.3042 20.0864 11.2016 20.1534C11.0991 20.2203 10.98 20.2576 10.8576 20.261L9.13104 20.261C9.00704 20.2615 8.88563 20.2255 8.78185 20.1576C8.67807 20.0897 8.59649 19.9929 8.54721 19.879L3.56664 10.2122L3.04368 9.19068L3.04368 19.2395L2.94407 24.3941C2.94407 24.4675 2.91492 24.5379 2.86303 24.5898C2.81114 24.6417 2.74076 24.6709 2.66737 24.6709L0.664076 24.6709C0.6263 24.671 0.588909 24.6633 0.554208 24.6484C0.519508 24.6334 0.488233 24.6115 0.462309 24.584C0.436386 24.5565 0.416364 24.524 0.403477 24.4885C0.39059 24.453 0.385111 24.4152 0.387378 24.3775L0.276699 19.2395L0.276698 7.41345L0.37631 2.25891C0.383067 2.18778 0.41439 2.12123 0.46489 2.07071C0.51539 2.02018 0.58191 1.98885 0.653008 1.98209L2.64524 1.98209C2.70523 1.97875 2.76468 1.99505 2.8146 2.02851C2.86452 2.06197 2.9022 2.11078 2.92193 2.16756L9.72871 16.9502L9.98328 17.5038L10.2323 16.9502L16.9201 2.1731L16.9201 2.15649C16.9782 2.00146 17.0059 1.97101 17.1968 1.97101L19.189 1.97101L19.1918 1.97101ZM19.189 1.69418L17.1968 1.69418C17.0787 1.67795 16.9587 1.70641 16.8605 1.774C16.7622 1.84158 16.6927 1.94343 16.6655 2.0596L9.99434 16.8422L3.18203 2.0596C3.14305 1.9517 3.07152 1.85858 2.97734 1.79312C2.88316 1.72766 2.77098 1.69309 2.6563 1.69418L0.664076 1.69418C0.519477 1.70092 0.382598 1.76142 0.28024 1.86383C0.177882 1.96623 0.117416 2.10317 0.110679 2.24784L9.88956e-08 7.40791L3.03523e-07 19.2395L0.0996118 24.3885C0.0996118 24.5354 0.157916 24.6762 0.261698 24.78C0.36548 24.8839 0.506239 24.9422 0.653008 24.9422L2.64524 24.9422C2.79201 24.9422 2.93276 24.8839 3.03655 24.78C3.14033 24.6762 3.19863 24.5354 3.19863 24.3885L3.32038 19.2395L3.32038 10.3312L8.30095 19.998C8.37372 20.157 8.49069 20.2917 8.63789 20.3859C8.78508 20.4802 8.95628 20.53 9.13104 20.5296L10.8576 20.5296C11.0315 20.5258 11.2009 20.4742 11.3473 20.3804C11.4937 20.2867 11.6115 20.1544 11.6877 19.998L16.5355 10.5859L16.5355 19.2395L16.6351 24.3885C16.6351 24.5354 16.6934 24.6762 16.7972 24.78C16.901 24.8839 17.0417 24.9422 17.1885 24.9422L19.1807 24.9422C19.3275 24.9422 19.4683 24.8839 19.572 24.78C19.6758 24.6762 19.7341 24.5354 19.7341 24.3885L19.8559 19.2395L19.8559 7.40791L19.7563 2.25891C19.7495 2.11425 19.6891 1.9773 19.5867 1.8749C19.4843 1.77249 19.3475 1.712 19.2029 1.70526L19.189 1.69418Z" fill="white"/>
<path d="M37.3543 24.8093C37.2141 24.7967 37.0833 24.7336 36.9861 24.6318C36.8889 24.53 36.8319 24.3963 36.8258 24.2557L36.7954 22.8023C36.7965 22.7718 36.7914 22.7414 36.7805 22.7129C36.7696 22.6844 36.7531 22.6584 36.7319 22.6364C36.7107 22.6144 36.6853 22.597 36.6573 22.585C36.6292 22.5731 36.599 22.567 36.5685 22.567C36.502 22.5681 36.4386 22.5949 36.3914 22.6417C35.5198 23.8376 33.439 24.7955 31.7429 24.7955C30.1625 24.8066 28.6137 24.3529 27.289 23.4906C25.9643 22.6284 24.9221 21.3957 24.2919 19.9457C23.6617 18.4957 23.4713 16.8924 23.7443 15.3351C24.0174 13.7778 24.7419 12.335 25.8278 11.1862C26.9136 10.0375 28.313 9.23326 29.852 8.87361C31.3909 8.51395 33.0016 8.6147 34.4838 9.16333C35.966 9.71196 37.2543 10.6843 38.1887 11.9594C39.1231 13.2346 39.6624 14.7564 39.7394 16.3356C39.8773 18.9755 39.8551 21.6213 39.673 24.2584C39.6687 24.4024 39.6085 24.539 39.5052 24.6392C39.4019 24.7395 39.2636 24.7955 39.1196 24.7955L37.3543 24.8093ZM31.7124 11.7154C31.4951 11.7145 31.2779 11.7274 31.0622 11.7541C29.7962 11.9233 28.642 12.5681 27.834 13.5577C27.026 14.5474 26.6247 15.8075 26.7117 17.0824C26.7987 18.3573 27.3674 19.5512 28.3024 20.4218C29.2373 21.2924 30.4684 21.7743 31.7456 21.7697C32.9627 21.7706 34.1379 21.3256 35.0494 20.5187C35.9609 19.7118 36.5456 18.599 36.693 17.3903C36.7959 16.6836 36.7438 15.9629 36.5403 15.2783C36.3367 14.5937 35.9866 13.9617 35.5143 13.4261C35.0394 12.886 34.4544 12.4538 33.7986 12.1587C33.1428 11.8636 32.4315 11.7124 31.7124 11.7154Z" fill="white"/>
<path d="M31.7429 8.81421C33.7721 8.81597 35.7221 9.60157 37.1863 11.0071C38.6504 12.4126 39.5156 14.3295 39.6012 16.3578C39.7373 18.9903 39.7152 21.6286 39.5348 24.2584L39.5348 24.2834C39.5334 24.3367 39.5213 24.3892 39.4992 24.4378C39.4772 24.4863 39.4456 24.53 39.4064 24.5661C39.3672 24.6023 39.3211 24.6302 39.2709 24.6482C39.2207 24.6662 39.1674 24.6739 39.1142 24.6709L37.3544 24.6709C37.2529 24.659 37.1588 24.6121 37.0882 24.5384C37.0175 24.4647 36.9746 24.3686 36.967 24.2667L36.9393 22.8217C36.9408 22.7727 36.9325 22.7238 36.9148 22.678C36.8971 22.6323 36.8705 22.5905 36.8365 22.5552C36.8025 22.5198 36.7617 22.4917 36.7167 22.4723C36.6716 22.4529 36.6231 22.4428 36.5741 22.4424C36.5225 22.4423 36.4715 22.4525 36.4239 22.4725C36.3764 22.4924 36.3334 22.5218 36.2974 22.5587L36.2808 22.5726L36.2808 22.5919C35.4507 23.738 33.4142 24.6709 31.7568 24.6709C29.655 24.6709 27.6394 23.8356 26.1532 22.3488C24.667 20.8619 23.8321 18.8453 23.8321 16.7426C23.8321 14.6398 24.667 12.6232 26.1532 11.1364C27.6394 9.64952 29.655 8.81421 31.7568 8.81421L31.7429 8.81421ZM31.7568 21.9082C31.9778 21.9081 32.1987 21.8943 32.4181 21.8666C33.7158 21.6902 34.8981 21.0273 35.7259 20.0119C36.5536 18.9965 36.965 17.7044 36.8767 16.3971C36.7885 15.0898 36.2073 13.8648 35.2506 12.97C34.2939 12.0751 33.0332 11.5772 31.7236 11.577C31.4988 11.5772 31.2743 11.591 31.0512 11.6185C29.7525 11.795 28.5694 12.4588 27.7416 13.4754C26.9138 14.492 26.5031 15.7854 26.5928 17.0935C26.6825 18.4017 27.2659 19.6269 28.2247 20.5208C29.1835 21.4148 30.4461 21.9107 31.7568 21.9082ZM31.7568 8.53738C29.5816 8.53738 27.4956 9.40186 25.9575 10.9406C24.4195 12.4794 23.5554 14.5664 23.5554 16.7426C23.5554 18.9187 24.4195 21.0057 25.9575 22.5445C27.4956 24.0833 29.5816 24.9477 31.7568 24.9477C33.4834 24.9477 35.6084 23.9844 36.5049 22.7553C36.5145 22.744 36.5263 22.735 36.5397 22.7288C36.5531 22.7226 36.5676 22.7193 36.5824 22.7193C36.5951 22.7196 36.6077 22.7225 36.6192 22.728C36.6307 22.7334 36.641 22.7412 36.6494 22.7508C36.6577 22.7605 36.6639 22.7718 36.6676 22.784C36.6714 22.7962 36.6725 22.809 36.6709 22.8217L36.7041 24.2834C36.7158 24.4557 36.7895 24.618 36.9116 24.7402C37.0337 24.8623 37.1959 24.9361 37.3682 24.9477L39.128 24.9477C39.2176 24.9507 39.3069 24.9358 39.3906 24.9038C39.4744 24.8719 39.5509 24.8236 39.6158 24.7618C39.6807 24.6999 39.7327 24.6258 39.7687 24.5436C39.8046 24.4615 39.8239 24.373 39.8253 24.2834C40.0091 21.6407 40.0313 18.9893 39.8917 16.3439C39.8025 14.2447 38.9067 12.2609 37.391 10.8064C35.8754 9.35191 33.8569 8.53906 31.7568 8.53738ZM31.7568 21.6313C30.5035 21.6268 29.301 21.1349 28.4036 20.2596C27.5062 19.3842 26.9842 18.1941 26.9479 16.9407C26.9115 15.6874 27.3638 14.469 28.209 13.5431C29.0541 12.6172 30.2261 12.0564 31.477 11.9792C32.7279 11.9021 33.9599 12.3145 34.9124 13.1295C35.8649 13.9444 36.4633 15.098 36.5812 16.3463C36.6991 17.5947 36.3272 18.84 35.5441 19.819C34.761 20.798 33.6281 21.434 32.3849 21.5926C32.1764 21.6177 31.9667 21.6307 31.7568 21.6313Z" fill="white"/>
<path d="M44.626 24.8093C44.4792 24.8093 44.3384 24.751 44.2346 24.6471C44.1309 24.5433 44.0726 24.4025 44.0726 24.2557L44.2386 13.0967C44.2437 12.175 44.151 11.2554 43.9619 10.3534C43.9148 10.107 43.8733 9.89382 43.8457 9.6862C43.8359 9.63782 43.8371 9.58786 43.849 9.53998C43.861 9.49209 43.8835 9.44748 43.9148 9.40938C43.9545 9.36103 44.0043 9.32206 44.0607 9.29525C44.1172 9.26845 44.1789 9.25448 44.2413 9.25435L46.3885 8.88617C46.4796 8.89784 46.566 8.93345 46.6389 8.98937C46.7118 9.04529 46.7686 9.11952 46.8036 9.20452C46.8422 9.30788 46.8718 9.4144 46.8921 9.52287L46.9087 9.71665L47.0886 9.63914C47.8216 9.29385 48.622 9.11517 49.4322 9.11594C50.2094 9.11621 50.9784 9.27521 51.6921 9.58318C52.4058 9.89115 53.0491 10.3416 53.5827 10.907C53.627 10.9507 53.6618 11.0032 53.6847 11.0611C53.7077 11.119 53.7183 11.1811 53.716 11.2433C53.7136 11.3056 53.6984 11.3666 53.6711 11.4226C53.6439 11.4787 53.6053 11.5284 53.5578 11.5686L52.3292 12.7009C52.256 12.7485 52.1703 12.7735 52.083 12.7728C51.9717 12.7729 51.8639 12.7337 51.7786 12.6621C51.1875 12.2141 50.4697 11.9651 49.7283 11.9507C48.1179 11.9507 46.9059 13.2158 46.9059 14.8961L46.87 24.2612C46.87 24.408 46.8117 24.5489 46.7079 24.6527C46.6041 24.7565 46.4633 24.8148 46.3166 24.8148L44.626 24.8093Z" fill="white"/>
<path d="M46.3691 9.0135C46.4297 9.02508 46.4866 9.0513 46.5349 9.0899C46.5831 9.1285 46.6211 9.1783 46.6458 9.23497C46.7066 9.41767 46.7232 9.49518 46.7288 9.51179L46.7288 9.9298L47.1217 9.74433C47.8365 9.40756 48.6171 9.2336 49.4072 9.23497C50.1614 9.23645 50.9075 9.39132 51.6001 9.69017C52.2926 9.98903 52.9172 10.4256 53.4359 10.9734C53.4696 11.0033 53.4965 11.04 53.5149 11.081C53.5334 11.122 53.5429 11.1665 53.5429 11.2115C53.5429 11.2565 53.5334 11.301 53.5149 11.342C53.4965 11.3831 53.4696 11.4197 53.4359 11.4496L52.2212 12.5569C52.1722 12.5899 52.1143 12.6072 52.0552 12.6067C51.9765 12.6064 51.9003 12.5791 51.8394 12.5292C51.2266 12.0656 50.4825 11.8087 49.7143 11.7956C49.3265 11.7922 48.942 11.8664 48.5832 12.0138C48.2245 12.1611 47.8988 12.3787 47.6253 12.6538C47.0534 13.2476 46.74 14.0439 46.7537 14.8684L46.7177 24.239C46.72 24.2947 46.7108 24.3502 46.6907 24.4021C46.6705 24.454 46.6399 24.5012 46.6007 24.5407C46.5614 24.5803 46.5145 24.6112 46.4627 24.6317C46.4109 24.6522 46.3555 24.6618 46.2999 24.6598L44.6397 24.6598C44.5841 24.6621 44.5286 24.6529 44.4767 24.6328C44.4248 24.6126 44.3776 24.582 44.3381 24.5427C44.2986 24.5035 44.2677 24.4565 44.2472 24.4047C44.2267 24.3529 44.2171 24.2975 44.2191 24.2418L44.3851 13.0773C44.3902 12.1474 44.2974 11.2196 44.1084 10.3091C44.0614 10.0655 44.0199 9.85506 43.995 9.65298L43.995 9.62806C43.9911 9.60013 43.993 9.5717 44.0007 9.54454C44.0083 9.51739 44.0214 9.49211 44.0393 9.47027C44.0656 9.43779 44.0989 9.41169 44.1368 9.39395C44.1747 9.37621 44.216 9.36729 44.2578 9.36784L44.28 9.36784L44.3021 9.36784L46.3995 9.00797L46.3691 9.0135ZM46.3829 8.73114L44.2578 9.09655C44.1817 9.09456 44.1061 9.10922 44.0362 9.13953C43.9663 9.16983 43.9039 9.21503 43.8533 9.27198C43.8027 9.32893 43.7651 9.39625 43.7432 9.46923C43.7214 9.54221 43.7157 9.61909 43.7266 9.6945C43.8262 10.4585 44.125 11.3555 44.125 13.0829L43.959 24.2446C43.9567 24.3368 43.9732 24.4285 44.0074 24.5142C44.0417 24.5999 44.093 24.6777 44.1582 24.7429C44.2234 24.8082 44.3012 24.8595 44.3868 24.8937C44.4724 24.928 44.5641 24.9445 44.6563 24.9422L46.3165 24.9422C46.4085 24.9445 46.5001 24.928 46.5856 24.8937C46.6711 24.8594 46.7487 24.8081 46.8137 24.7428C46.8787 24.6775 46.9297 24.5997 46.9636 24.514C46.9975 24.4283 47.0137 24.3367 47.011 24.2446L47.047 14.8767C47.047 13.2158 48.2617 12.0697 49.7309 12.0697C50.4406 12.0824 51.1277 12.3209 51.6927 12.7507C51.8033 12.842 51.9423 12.8919 52.0856 12.8919C52.2068 12.8927 52.325 12.8549 52.4232 12.7839L53.6518 11.6544C53.7129 11.6013 53.7625 11.5363 53.7975 11.4632C53.8326 11.3902 53.8522 11.3107 53.8554 11.2298C53.8585 11.1488 53.8449 11.0681 53.8156 10.9926C53.7863 10.9171 53.7419 10.8484 53.685 10.7907C53.1391 10.215 52.4823 9.75573 51.7543 9.44077C51.0262 9.12581 50.2419 8.96163 49.4487 8.95814C48.6183 8.95742 47.7981 9.14084 47.047 9.49518C47.0276 9.37001 46.9942 9.24743 46.9474 9.12977C46.9013 9.0184 46.8251 8.92209 46.7274 8.85166C46.6296 8.78124 46.5141 8.7395 46.394 8.73114L46.3829 8.73114Z" fill="white"/>
<path d="M96.0918 24.8093C95.945 24.8093 95.8042 24.751 95.7005 24.6471C95.5967 24.5433 95.5384 24.4025 95.5384 24.2557L95.7044 13.0967C95.7095 12.175 95.6168 11.2554 95.4277 10.3534C95.3807 10.107 95.3391 9.89382 95.3115 9.6862C95.3017 9.63782 95.3029 9.58786 95.3148 9.53998C95.3268 9.49209 95.3493 9.44748 95.3807 9.40938C95.4203 9.36103 95.4701 9.32206 95.5265 9.29525C95.583 9.26845 95.6447 9.25448 95.7072 9.25435L97.8543 8.88617C97.9455 8.89784 98.0319 8.93345 98.1048 8.98937C98.1777 9.04529 98.2345 9.11952 98.2694 9.20452C98.308 9.30788 98.3377 9.4144 98.3579 9.52287L98.3745 9.71665L98.5544 9.63914C99.2874 9.29385 100.088 9.11517 100.898 9.11594C101.673 9.11809 102.439 9.278 103.15 9.58591C103.862 9.89383 104.503 10.3433 105.035 10.907C105.079 10.9507 105.114 11.0032 105.137 11.0611C105.16 11.119 105.17 11.1811 105.168 11.2433C105.166 11.3056 105.15 11.3666 105.123 11.4226C105.096 11.4787 105.057 11.5284 105.01 11.5686L103.781 12.7009C103.708 12.7485 103.622 12.7735 103.535 12.7728C103.424 12.7729 103.316 12.7337 103.231 12.6621C102.639 12.2141 101.922 11.9651 101.18 11.9507C99.5699 11.9507 98.3579 13.2158 98.3579 14.8961L98.322 24.2612C98.322 24.408 98.2637 24.5489 98.1599 24.6527C98.0561 24.7565 97.9153 24.8148 97.7686 24.8148L96.0918 24.8093Z" fill="white"/>
<path d="M97.8351 9.0135C97.8958 9.02508 97.9527 9.0513 98.0009 9.0899C98.0491 9.1285 98.0872 9.1783 98.1118 9.23497C98.1727 9.41767 98.1893 9.49518 98.1948 9.51179L98.1948 9.9298L98.5877 9.74433C99.3026 9.40756 100.083 9.2336 100.873 9.23497C101.627 9.23645 102.374 9.39132 103.066 9.69017C103.759 9.98903 104.383 10.4256 104.902 10.9734C104.936 11.0033 104.963 11.04 104.981 11.081C104.999 11.122 105.009 11.1665 105.009 11.2115C105.009 11.2565 104.999 11.301 104.981 11.342C104.963 11.3831 104.936 11.4197 104.902 11.4496L103.687 12.5569C103.638 12.5899 103.58 12.6072 103.521 12.6067C103.443 12.6064 103.366 12.5791 103.305 12.5292C102.693 12.0656 101.949 11.8087 101.18 11.7956C100.793 11.7922 100.408 11.8664 100.049 12.0138C99.6905 12.1611 99.3648 12.3787 99.0913 12.6538C98.5194 13.2476 98.206 14.0439 98.2197 14.8684L98.1838 24.239C98.1861 24.2947 98.1769 24.3502 98.1567 24.4021C98.1366 24.454 98.106 24.5012 98.0667 24.5407C98.0275 24.5803 97.9805 24.6112 97.9288 24.6317C97.877 24.6522 97.8216 24.6618 97.7659 24.6598L96.1057 24.6598C96.0501 24.6621 95.9946 24.6529 95.9427 24.6328C95.8908 24.6126 95.8437 24.582 95.8042 24.5427C95.7647 24.5035 95.7337 24.4565 95.7133 24.4047C95.6928 24.3529 95.6832 24.2975 95.6852 24.2418L95.8512 13.0773C95.8563 12.1474 95.7635 11.2196 95.5745 10.3091C95.5275 10.0655 95.4859 9.85506 95.461 9.65298L95.461 9.62806C95.4572 9.60013 95.4591 9.5717 95.4667 9.54454C95.4743 9.51739 95.4875 9.49211 95.5053 9.47027C95.5317 9.43779 95.565 9.41169 95.6029 9.39395C95.6407 9.37621 95.6821 9.36729 95.7239 9.36784L95.746 9.36784L95.7682 9.36784L97.8656 9.00797L97.8351 9.0135ZM97.849 8.73114L95.7239 9.09655C95.6478 9.09456 95.5721 9.10922 95.5022 9.13953C95.4324 9.16983 95.3699 9.21503 95.3194 9.27198C95.2688 9.32893 95.2312 9.39625 95.2093 9.46923C95.1874 9.54221 95.1817 9.61909 95.1926 9.6945C95.2923 10.4585 95.5911 11.3555 95.5911 13.0829L95.4251 24.2446C95.4228 24.3368 95.4393 24.4285 95.4735 24.5142C95.5077 24.5999 95.559 24.6777 95.6242 24.7429C95.6894 24.8082 95.7672 24.8595 95.8528 24.8937C95.9385 24.928 96.0302 24.9445 96.1224 24.9422L97.7825 24.9422C97.8746 24.9445 97.9662 24.928 98.0517 24.8937C98.1371 24.8594 98.2147 24.8081 98.2797 24.7428C98.3447 24.6775 98.3957 24.5997 98.4297 24.514C98.4636 24.4283 98.4797 24.3367 98.4771 24.2446L98.513 14.8767C98.513 13.2158 99.7277 12.0697 101.197 12.0697C101.907 12.0824 102.594 12.3209 103.159 12.7507C103.269 12.842 103.408 12.8919 103.552 12.8919C103.673 12.8927 103.791 12.8549 103.889 12.7839L105.118 11.6544C105.179 11.6013 105.229 11.5363 105.264 11.4632C105.299 11.3902 105.318 11.3107 105.321 11.2298C105.325 11.1488 105.311 11.0681 105.282 10.9926C105.252 10.9171 105.208 10.8484 105.151 10.7907C104.605 10.215 103.948 9.75573 103.22 9.44077C102.492 9.12581 101.708 8.96163 100.915 8.95814C100.084 8.95742 99.2641 9.14084 98.513 9.49518C98.4937 9.37001 98.4603 9.24743 98.4134 9.12977C98.3674 9.0184 98.2912 8.92209 98.1934 8.85166C98.0957 8.78124 97.9802 8.7395 97.86 8.73114L97.849 8.73114Z" fill="white"/>
<path d="M63.4138 33.8616C61.4754 33.8859 59.5655 33.3939 57.8799 32.4359C57.7871 32.3622 57.725 32.2566 57.7055 32.1397C57.6956 32.0818 57.6976 32.0225 57.7114 31.9653C57.7252 31.9082 57.7505 31.8545 57.7858 31.8075L58.7515 30.44C58.7953 30.3894 58.8492 30.3485 58.9097 30.3199C58.9702 30.2913 59.036 30.2756 59.1029 30.2739C59.1609 30.2731 59.2181 30.2874 59.2689 30.3154C60.4913 30.8436 61.8113 31.1077 63.1427 31.0905C66.9639 31.0905 68.7015 29.4296 68.7015 27.9042C68.7015 26.9713 68.2063 24.8093 63.6158 24.8093C61.5057 24.7664 59.4968 23.8966 58.0211 22.3871C56.5454 20.8775 55.7209 18.8488 55.7249 16.7373C55.7289 14.6258 56.561 12.6002 58.0424 11.0962C59.5238 9.59228 61.536 8.7301 63.6463 8.69516C63.8012 8.69516 63.9534 8.69516 64.1056 8.709C65.6932 8.79261 67.2205 9.34468 68.4948 10.2956C69.7692 11.2465 70.7335 12.5537 71.2663 14.0523C71.799 15.5508 71.8762 17.1737 71.4883 18.7161C71.1003 20.2585 70.2644 21.6515 69.0861 22.7193C69.0379 22.7582 68.9992 22.8076 68.9728 22.8637C68.9465 22.9198 68.9332 22.9812 68.934 23.0431C68.9358 23.1176 68.9541 23.1908 68.9876 23.2573C69.0211 23.3238 69.0689 23.3821 69.1277 23.4279C69.868 23.9112 70.4718 24.5767 70.8812 25.3605C71.2906 26.1443 71.4919 27.0202 71.4658 27.9042C71.4796 31.8158 67.4232 33.8616 63.4138 33.8616ZM63.6905 11.6821C62.4004 11.6808 61.1581 12.1711 60.2164 13.0534C59.2747 13.9357 58.7043 15.1438 58.6211 16.4318C58.5379 17.7199 58.9483 18.9913 59.7687 19.9875C60.5891 20.9837 61.7579 21.6299 63.0375 21.7947C63.2495 21.8223 63.463 21.8361 63.6767 21.8362C64.3937 21.8338 65.102 21.6793 65.7549 21.383C66.4079 21.0867 66.9906 20.6552 67.4647 20.1171C68.0772 19.4285 68.4904 18.5858 68.6599 17.6798C68.8294 16.7738 68.7487 15.8386 68.4265 14.975C68.1044 14.1114 67.5529 13.3521 66.8316 12.7787C66.1102 12.2053 65.2461 11.8396 64.3325 11.7209C64.1185 11.6957 63.9032 11.6827 63.6878 11.6821L63.6905 11.6821Z" fill="white"/>
<path d="M63.649 8.55677L63.649 8.83359C63.7984 8.83359 63.9478 8.83359 64.1 8.84744C65.6607 8.92718 67.1628 9.46759 68.4168 10.4005C69.6709 11.3334 70.6206 12.617 71.1463 14.0893C71.672 15.5617 71.75 17.1568 71.3706 18.6735C70.9911 20.1901 70.1711 21.5604 69.0141 22.6113C68.9499 22.6634 68.8982 22.7293 68.8628 22.804C68.8273 22.8787 68.8091 22.9605 68.8094 23.0432C68.8103 23.1386 68.833 23.2326 68.8757 23.318C68.9183 23.4034 68.9799 23.4779 69.0556 23.5359C69.775 24.0065 70.3615 24.6541 70.7588 25.4166C71.1561 26.1791 71.3509 27.0309 71.3246 27.8904C71.3246 30.105 70.0102 31.4643 68.909 32.2034C67.4619 33.1751 65.5028 33.7093 63.3972 33.7093C61.4898 33.7381 59.609 33.2605 57.9462 32.3252C57.8813 32.2731 57.8371 32.1994 57.8217 32.1176C57.815 32.0763 57.8169 32.034 57.8274 31.9935C57.8379 31.953 57.8567 31.9151 57.8826 31.8823L58.8372 30.5314C58.8683 30.4962 58.9061 30.4675 58.9484 30.4471C58.9906 30.4267 59.0366 30.4148 59.0834 30.4123C59.117 30.4121 59.1502 30.4197 59.1803 30.4345C60.4182 30.9698 61.7554 31.2368 63.1039 31.2179C67.0191 31.2179 68.8011 29.4933 68.8011 27.896C68.8011 25.8391 66.8974 24.6626 63.5798 24.6626C61.5062 24.6204 59.532 23.7656 58.0817 22.2823C56.6315 20.7989 55.821 18.8054 55.8246 16.7304C55.8283 14.6554 56.6457 12.6647 58.1011 11.1864C59.5565 9.70809 61.5337 8.86029 63.6075 8.82529L63.6075 8.54846L63.649 8.55677ZM63.6324 21.9663C64.3688 21.964 65.0964 21.8054 65.767 21.501C66.4377 21.1965 67.0361 20.7531 67.5227 20.2001C68.1523 19.4932 68.5771 18.6279 68.7515 17.6973C68.9259 16.7668 68.8433 15.8062 68.5126 14.9192C68.1818 14.0321 67.6154 13.2521 66.8745 12.6632C66.1335 12.0742 65.246 11.6987 64.3075 11.577C64.0881 11.5494 63.8673 11.5356 63.6462 11.5354C62.9616 11.5354 62.2837 11.6703 61.6513 11.9324C61.0188 12.1945 60.4441 12.5787 59.96 13.063C59.476 13.5473 59.092 14.1222 58.83 14.755C58.568 15.3878 58.4332 16.066 58.4332 16.7509C58.4332 17.4358 58.568 18.114 58.83 18.7467C59.092 19.3795 59.476 19.9544 59.96 20.4387C60.4441 20.923 61.0188 21.3072 61.6513 21.5693C62.2837 21.8314 62.9616 21.9663 63.6462 21.9663L63.6324 21.9663ZM63.6185 8.54846C61.4718 8.58374 59.4247 9.46065 57.9177 10.9905C56.4106 12.5204 55.5641 14.581 55.5601 16.729C55.5561 18.877 56.395 20.9407 57.8964 22.4762C59.3977 24.0117 61.4415 24.8962 63.5881 24.9394C65.0823 24.9394 68.5355 25.2163 68.5355 27.896C68.5355 29.8864 65.8819 30.9411 63.1149 30.9411C61.806 30.9594 60.5078 30.7019 59.3048 30.1853C59.2345 30.1437 59.154 30.1226 59.0724 30.1244C58.9832 30.1267 58.8955 30.1482 58.8153 30.1873C58.7351 30.2265 58.6642 30.2825 58.6075 30.3514L57.6446 31.7134C57.5982 31.7764 57.5647 31.8481 57.5463 31.9241C57.5278 32.0002 57.5246 32.0792 57.537 32.1565C57.5494 32.2338 57.577 32.3079 57.6183 32.3744C57.6595 32.4409 57.7137 32.4985 57.7774 32.5439C59.4856 33.5151 61.4215 34.0139 63.3861 33.9889C67.5559 33.9889 71.5902 31.8795 71.5902 27.8987C71.6176 26.9937 71.4122 26.0968 70.9935 25.2941C70.5749 24.4913 69.9572 23.8097 69.1995 23.3145C69.159 23.2879 69.1253 23.2524 69.1009 23.2106C69.0765 23.1688 69.0621 23.1219 69.0589 23.0736C69.0556 23.0253 69.0637 22.9769 69.0823 22.9322C69.101 22.8876 69.1297 22.8478 69.1663 22.8162C70.3655 21.7292 71.2158 20.3111 71.61 18.7409C72.0041 17.1708 71.9244 15.519 71.3808 13.9941C70.8372 12.4693 69.8542 11.1398 68.5559 10.1735C67.2576 9.20726 65.7022 8.64754 64.0861 8.56507C63.9312 8.56507 63.7735 8.55123 63.6185 8.55123L63.6185 8.54846ZM63.6462 21.6895C63.4381 21.6888 63.2302 21.6759 63.0236 21.6507C61.7841 21.4837 60.6541 20.8523 59.8617 19.8842C59.0693 18.916 58.6735 17.6832 58.7543 16.4345C58.8351 15.1858 59.3864 14.0142 60.2969 13.1563C61.2074 12.2984 62.4093 11.8181 63.66 11.8123C63.8691 11.8116 64.078 11.8245 64.2854 11.851C65.5251 12.0181 66.6553 12.6497 67.4477 13.6181C68.2401 14.5866 68.6357 15.8197 68.5545 17.0686C68.4734 18.3175 67.9216 19.4891 67.0106 20.3468C66.0995 21.2045 64.8971 21.6843 63.6462 21.6895Z" fill="white"/>
<path d="M89.0499 24.8093C88.9102 24.7961 88.78 24.7327 88.6834 24.631C88.5868 24.5292 88.5302 24.3959 88.5242 24.2557L88.491 22.8023C88.4921 22.7718 88.487 22.7414 88.4761 22.7129C88.4652 22.6844 88.4487 22.6584 88.4275 22.6364C88.4063 22.6145 88.3809 22.597 88.3528 22.5851C88.3248 22.5731 88.2946 22.567 88.2641 22.567C88.1984 22.568 88.1357 22.5948 88.0897 22.6418C87.2154 23.8377 85.1374 24.7955 83.4384 24.7955C81.858 24.8041 80.31 24.3478 78.9867 23.4833C77.6633 22.6189 76.6231 21.3844 75.9953 19.9334C75.3675 18.4823 75.1797 16.8787 75.4554 15.3218C75.7311 13.7649 76.458 12.3233 77.5458 11.1763C78.6336 10.0294 80.0344 9.22751 81.574 8.87045C83.1136 8.5134 84.7241 8.61688 86.2054 9.16805C87.6867 9.71922 88.9734 10.6938 89.9057 11.9705C90.8379 13.2473 91.3745 14.7701 91.4489 16.3495C91.5867 18.9893 91.5646 21.6351 91.3825 24.2723C91.3781 24.4162 91.3179 24.5528 91.2146 24.6531C91.1113 24.7533 90.973 24.8094 90.8291 24.8093L89.0499 24.8093ZM83.408 11.7154C83.1907 11.7145 82.9735 11.7274 82.7578 11.7541C81.4991 11.9326 80.3547 12.5812 79.5546 13.5694C78.7545 14.5577 78.3581 15.8124 78.445 17.0812C78.5319 18.3501 79.0958 19.5389 80.0232 20.4087C80.9506 21.2785 82.1728 21.7648 83.444 21.7698C84.6634 21.774 85.842 21.3305 86.7564 20.5233C87.6709 19.7161 88.2575 18.6014 88.4052 17.3903C88.5063 16.6826 88.452 15.9613 88.246 15.2766C88.04 14.592 87.6874 13.9605 87.2126 13.4262C86.7372 12.8859 86.1517 12.4537 85.4955 12.1586C84.8392 11.8636 84.1275 11.7124 83.408 11.7154Z" fill="white"/>
<path d="M83.4385 8.81421C85.4678 8.81529 87.4183 9.60066 88.8826 11.0063C90.3469 12.412 91.2118 14.3293 91.2967 16.3578C91.4362 18.9902 91.414 21.6287 91.2303 24.2584L91.2303 24.2834C91.2293 24.3368 91.2175 24.3895 91.1956 24.4382C91.1736 24.487 91.1421 24.5308 91.1028 24.567C91.0635 24.6032 91.0172 24.6311 90.9669 24.649C90.9165 24.6668 90.8631 24.6743 90.8097 24.6709L89.0499 24.6709C88.9487 24.6585 88.8549 24.6115 88.7843 24.5378C88.7137 24.4642 88.6707 24.3684 88.6625 24.2667L88.6293 22.8217C88.6308 22.7727 88.6225 22.7238 88.6048 22.678C88.5872 22.6323 88.5605 22.5905 88.5265 22.5552C88.4925 22.5198 88.4517 22.4917 88.4067 22.4723C88.3616 22.4529 88.3131 22.4428 88.2641 22.4424C88.2125 22.4423 88.1615 22.4525 88.114 22.4725C88.0664 22.4924 88.0234 22.5218 87.9874 22.5587L87.9736 22.5726L87.9597 22.5919C87.1296 23.738 85.0959 24.6709 83.4357 24.6709C81.334 24.6709 79.3183 23.8356 77.8321 22.3488C76.346 20.8619 75.5111 18.8453 75.5111 16.7426C75.5111 14.6398 76.346 12.6232 77.8321 11.1364C79.3183 9.64952 81.334 8.81421 83.4357 8.81421L83.4385 8.81421ZM83.4357 21.9082C83.6559 21.9081 83.8758 21.8943 84.0943 21.8666C85.392 21.6902 86.5743 21.0273 87.4021 20.0119C88.2298 18.9965 88.6412 17.7044 88.5529 16.3971C88.4647 15.0898 87.8834 13.8648 86.9268 12.97C85.9701 12.0751 84.7094 11.5772 83.3997 11.577C83.1759 11.5771 82.9523 11.5909 82.7301 11.6185C81.4314 11.795 80.2483 12.4588 79.4205 13.4754C78.5927 14.492 78.1821 15.7854 78.2718 17.0935C78.3615 18.4017 78.9448 19.6269 79.9036 20.5208C80.8625 21.4148 82.1251 21.9107 83.4357 21.9082ZM83.4357 8.53738C81.2606 8.53738 79.1745 9.40186 77.6365 10.9406C76.0984 12.4794 75.2344 14.5664 75.2344 16.7426C75.2344 18.9187 76.0984 21.0057 77.6365 22.5445C79.1745 24.0833 81.2606 24.9477 83.4357 24.9477C85.1623 24.9477 87.2874 23.9844 88.1839 22.7553C88.1938 22.7444 88.2057 22.7357 88.219 22.7295C88.2323 22.7233 88.2467 22.7198 88.2613 22.7193C88.2741 22.7196 88.2866 22.7225 88.2982 22.728C88.3097 22.7334 88.32 22.7412 88.3283 22.7508C88.3367 22.7605 88.3429 22.7718 88.3466 22.784C88.3503 22.7962 88.3514 22.809 88.3499 22.8217L88.3831 24.2834C88.3947 24.4557 88.4684 24.618 88.5905 24.7402C88.7126 24.8623 88.8749 24.9361 89.0472 24.9477L90.807 24.9477C90.8965 24.9507 90.9858 24.9358 91.0696 24.9038C91.1533 24.8719 91.2299 24.8236 91.2948 24.7618C91.3597 24.6999 91.4117 24.6258 91.4476 24.5436C91.4836 24.4615 91.5028 24.373 91.5042 24.2834C91.688 21.6407 91.7102 18.9893 91.5707 16.3439C91.4815 14.2447 90.5857 12.2609 89.07 10.8064C87.5543 9.35191 85.5359 8.53906 83.4357 8.53738ZM83.4357 21.6313C82.1948 21.6347 80.999 21.1659 80.0908 20.3199C79.1826 19.4739 78.6299 18.3141 78.5447 17.0755C78.4595 15.8369 78.8483 14.6123 79.6322 13.6499C80.4161 12.6874 81.5364 12.0592 82.7661 11.8925C82.9763 11.8661 83.1879 11.8531 83.3997 11.8538C84.6399 11.8525 85.8342 12.3229 86.7408 13.1695C87.6474 14.0162 88.1986 15.1759 88.2826 16.4138C88.3667 17.6517 87.9774 18.8753 87.1936 19.8368C86.4098 20.7984 85.29 21.426 84.0611 21.5926C83.8535 21.6177 83.6447 21.6307 83.4357 21.6313Z" fill="white"/>
<path d="M115.521 24.8093C114.34 24.8341 113.168 24.5988 112.088 24.1203C111.008 23.6417 110.046 22.9315 109.271 22.04C108.495 21.1484 107.925 20.0972 107.6 18.9608C107.276 17.8244 107.205 16.6305 107.392 15.4636C107.912 11.4745 111.235 8.68964 115.477 8.68964C115.809 8.68936 116.141 8.70692 116.471 8.74224C118.241 8.96599 119.865 9.84015 121.028 11.1949C122.171 12.4766 122.854 14.0656 122.854 15.447C122.854 15.447 122.854 15.7792 122.821 16.2C122.788 17.0803 121.833 17.7336 121 17.7336L110.831 17.7336C110.767 17.7321 110.704 17.7451 110.645 17.7714C110.587 17.7978 110.535 17.8369 110.494 17.8859C110.451 17.9369 110.42 17.997 110.403 18.0617C110.386 18.1264 110.384 18.194 110.397 18.2596C110.967 20.5739 112.854 21.8971 115.58 21.8971C117.065 21.8389 118.484 21.262 119.589 20.2666C119.634 20.2221 119.687 20.187 119.745 20.1632C119.804 20.1394 119.866 20.1275 119.929 20.1282C119.991 20.1271 120.052 20.1384 120.109 20.1612C120.166 20.184 120.218 20.2179 120.261 20.261L121.592 21.5566C121.642 21.6005 121.682 21.6546 121.709 21.7153C121.736 21.7759 121.75 21.8417 121.75 21.9082C121.75 21.9729 121.737 22.037 121.711 22.0962C121.684 22.1554 121.646 22.2083 121.598 22.2514C119.846 23.9733 117.857 24.8093 115.521 24.8093ZM115.588 11.2448C114.473 11.2392 113.387 11.6012 112.499 12.2746C111.61 12.9481 110.968 13.8957 110.671 14.9709C110.649 15.0412 110.644 15.1155 110.656 15.188C110.668 15.2605 110.697 15.3293 110.74 15.3889C110.782 15.4464 110.837 15.4933 110.9 15.5255C110.964 15.5577 111.034 15.5745 111.105 15.5744L119.639 15.5744C119.71 15.5745 119.78 15.5577 119.844 15.5255C119.907 15.4933 119.962 15.4464 120.004 15.3889C120.048 15.3275 120.076 15.2566 120.087 15.182C120.099 15.1074 120.092 15.0312 120.068 14.9598C119.653 13.5867 118.526 11.2558 115.58 11.2558L115.588 11.2448Z" fill="white"/>
<path d="M115.469 8.55122L115.469 8.82805C115.795 8.82808 116.121 8.84471 116.446 8.87788C118.183 9.09763 119.777 9.95608 120.917 11.2863C122.038 12.5431 122.708 14.0989 122.708 15.4387C122.708 15.4387 122.708 15.7654 122.674 16.1917C122.647 16.9779 121.747 17.5758 120.992 17.5758L110.832 17.5758C110.748 17.5748 110.665 17.5921 110.588 17.6265C110.512 17.6609 110.444 17.7116 110.389 17.7751C110.333 17.8421 110.293 17.9203 110.27 18.0044C110.248 18.0885 110.244 18.1766 110.259 18.2623L110.259 18.2845C110.843 20.6541 112.78 22.0161 115.574 22.0161C117.101 21.9596 118.559 21.3688 119.694 20.3469C119.759 20.2873 119.843 20.2543 119.931 20.2543C120.019 20.2543 120.103 20.2873 120.167 20.3469L121.496 21.6424C121.529 21.6729 121.556 21.7101 121.574 21.7516C121.592 21.7931 121.601 21.838 121.601 21.8833C121.601 21.9282 121.592 21.9727 121.574 22.0138C121.556 22.0548 121.529 22.0915 121.496 22.1213C119.777 23.8127 117.821 24.6349 115.513 24.6349C114.352 24.6594 113.2 24.4282 112.138 23.9578C111.075 23.4875 110.13 22.7893 109.367 21.9128C108.604 21.0363 108.044 20.0028 107.724 18.8855C107.405 17.7682 107.335 16.5943 107.52 15.447C108.031 11.5299 111.299 8.80313 115.469 8.80313L115.469 8.52631L115.469 8.55122ZM110.541 14.9376C110.511 15.0303 110.503 15.1289 110.518 15.2252C110.534 15.3215 110.572 15.4128 110.63 15.4913C110.684 15.5672 110.755 15.629 110.838 15.6714C110.921 15.7138 111.012 15.7356 111.106 15.7349L119.639 15.7349C119.732 15.7356 119.824 15.7138 119.907 15.6714C119.99 15.629 120.061 15.5672 120.115 15.4913C120.173 15.4129 120.211 15.3216 120.227 15.2253C120.242 15.1289 120.234 15.0303 120.203 14.9376C119.783 13.5092 118.626 11.1174 115.588 11.1174C114.444 11.1112 113.33 11.482 112.418 12.1725C111.506 12.863 110.846 13.8347 110.541 14.9376ZM115.477 8.55122C111.327 8.55122 107.807 11.2032 107.254 15.447C106.557 20.7067 110.375 24.9477 115.522 24.9477C116.673 24.9576 117.814 24.7329 118.876 24.2875C119.938 23.842 120.898 23.1851 121.698 22.3566C121.76 22.3 121.811 22.2309 121.845 22.1536C121.879 22.0764 121.897 21.9927 121.897 21.9082C121.897 21.8236 121.879 21.74 121.845 21.6627C121.811 21.5855 121.76 21.5163 121.698 21.4597L120.369 20.1642C120.253 20.0525 120.099 19.9901 119.938 19.9901C119.777 19.9901 119.622 20.0525 119.506 20.1642C118.424 21.1339 117.039 21.6975 115.588 21.7587C113.297 21.7587 111.161 20.7953 110.541 18.2374C110.531 18.193 110.531 18.1469 110.542 18.1025C110.552 18.0582 110.572 18.0168 110.601 17.9816C110.63 17.9463 110.666 17.9181 110.708 17.8991C110.749 17.8802 110.794 17.8709 110.84 17.872L121 17.872C121.93 17.872 122.937 17.1412 122.959 16.211C122.993 15.7792 122.993 15.447 122.993 15.447C122.993 12.5957 120.195 8.99691 116.476 8.60382C116.142 8.56857 115.806 8.55101 115.469 8.55122L115.477 8.55122ZM111.094 15.447C111.043 15.446 110.993 15.4328 110.948 15.4086C110.903 15.3843 110.864 15.3497 110.835 15.3075C110.806 15.2654 110.787 15.2169 110.78 15.166C110.773 15.1152 110.779 15.0635 110.796 15.0152C111.083 13.9692 111.708 13.0475 112.572 12.3928C113.437 11.7381 114.493 11.3871 115.577 11.3942C118.233 11.3942 119.429 13.332 119.927 15.0152C119.944 15.0635 119.949 15.1152 119.942 15.166C119.936 15.2169 119.917 15.2654 119.888 15.3075C119.859 15.3497 119.82 15.3843 119.775 15.4086C119.729 15.4328 119.679 15.446 119.628 15.447L111.094 15.447Z" fill="white"/>
<path d="M129.525 24.8093C129.411 24.8081 129.301 24.7633 129.218 24.6842C129.136 24.605 129.086 24.4974 129.08 24.383L128.98 19.0319L128.98 11.923L125.557 11.8206C125.445 11.8171 125.338 11.7712 125.259 11.692C125.179 11.6129 125.133 11.5064 125.128 11.3942L125.128 9.40107C125.126 9.28186 125.171 9.16662 125.254 9.08051C125.336 8.99441 125.449 8.94444 125.568 8.94154L128.98 8.83634L128.98 5.87982L129.08 0.567497C129.08 0.509723 129.091 0.452536 129.114 0.399365C129.136 0.346193 129.17 0.298131 129.211 0.258062C129.253 0.217993 129.302 0.186742 129.356 0.166182C129.41 0.145622 129.468 0.136177 129.525 0.138414L131.462 0.138414C131.518 0.138046 131.574 0.148822 131.626 0.170116C131.677 0.19141 131.725 0.222798 131.764 0.262458C131.804 0.302119 131.835 0.349262 131.857 0.401151C131.878 0.45304 131.889 0.508641 131.888 0.564728L132.021 5.88259L132.021 8.83634L135.444 8.94154C135.56 8.95111 135.668 9.00339 135.748 9.08828C135.828 9.17316 135.873 9.28461 135.875 9.40107L135.875 11.361C135.872 11.4789 135.824 11.5911 135.742 11.676C135.661 11.7609 135.55 11.8124 135.433 11.8206L132.024 11.923L132.024 19.0347L131.891 24.3775C131.888 24.49 131.842 24.597 131.763 24.6771C131.684 24.7573 131.577 24.8045 131.465 24.8093L129.525 24.8093Z" fill="white"/>
<path d="M131.451 0.276834C131.489 0.276766 131.526 0.284438 131.561 0.299377C131.596 0.314316 131.627 0.336205 131.653 0.363697C131.679 0.391188 131.699 0.423699 131.712 0.459227C131.725 0.494754 131.73 0.532545 131.728 0.570272L131.861 5.87983L131.861 8.972L132.137 8.972L135.411 9.07166C135.494 9.07788 135.572 9.11515 135.63 9.17612C135.687 9.2371 135.719 9.31735 135.721 9.40108L135.721 11.361C135.717 11.4431 135.683 11.521 135.626 11.5801C135.569 11.6392 135.493 11.6755 135.411 11.6821L132.137 11.7818L131.861 11.7818L131.861 19.0264L131.728 24.383C131.721 24.4539 131.689 24.5202 131.639 24.5706C131.588 24.6211 131.522 24.6526 131.451 24.6598L129.514 24.6598C129.433 24.6621 129.354 24.6328 129.294 24.5781C129.235 24.5233 129.198 24.4474 129.193 24.3664L129.094 19.0236L129.094 11.7901L128.817 11.7901L125.541 11.6904C125.464 11.6908 125.391 11.6627 125.334 11.6115C125.277 11.5603 125.241 11.4897 125.234 11.4136L125.234 9.42046C125.232 9.37905 125.239 9.33777 125.254 9.29905C125.269 9.26033 125.291 9.22495 125.32 9.19502C125.348 9.16508 125.382 9.14119 125.421 9.12476C125.459 9.10833 125.499 9.09968 125.541 9.09934L128.817 8.99968L129.094 8.99968L129.094 5.88537L129.193 0.564735C129.196 0.525305 129.206 0.48676 129.224 0.451371C129.241 0.415981 129.266 0.384461 129.295 0.358666C129.325 0.332871 129.36 0.313322 129.398 0.301171C129.435 0.289019 129.475 0.284509 129.514 0.287907L131.451 0.287907L131.451 0.276834ZM131.451 0.0110794L129.514 0.0110795C129.438 0.00698112 129.362 0.0181702 129.291 0.0439826C129.22 0.0697951 129.154 0.109705 129.098 0.161344C129.043 0.212983 128.998 0.275299 128.967 0.344593C128.935 0.413888 128.918 0.488749 128.917 0.564735L128.817 5.87983L128.817 8.70347L125.53 8.80313C125.378 8.81238 125.236 8.87969 125.133 8.99107C125.03 9.10245 124.974 9.24931 124.976 9.40108L124.976 11.3942C124.983 11.5389 125.044 11.6759 125.146 11.7783C125.248 11.8807 125.385 11.9412 125.53 11.9479L128.817 12.0476L128.817 19.0236L128.917 24.3719C128.926 24.5234 128.993 24.6655 129.104 24.7687C129.216 24.8718 129.363 24.928 129.514 24.9256L131.451 24.9256C131.596 24.9188 131.733 24.8584 131.835 24.7559C131.937 24.6535 131.998 24.5166 132.005 24.3719L132.137 19.0236L132.137 12.0586L135.444 11.959C135.593 11.9447 135.733 11.8759 135.835 11.7656C135.937 11.6553 135.995 11.5113 135.997 11.361L135.997 9.40108C135.995 9.25081 135.937 9.10679 135.835 8.99651C135.733 8.88622 135.593 8.81739 135.444 8.80313L132.157 8.70347L132.157 5.87983L132.024 0.564735C132.024 0.417897 131.966 0.277072 131.862 0.173241C131.758 0.0694108 131.617 0.0110794 131.47 0.0110794L131.451 0.0110794Z" fill="white"/>
</g>
</svg>
